
      <svg data-logo="logo" xmlns="http://www.w3.org/2000/svg" viewBox="0 0 218 42">
        <g id="logogram" transform="translate(0, 1) rotate(0) "><path d="M28.7089 33.1053L1.9434 14.6424C-0.768963 12.7715 0.15306 8.87601 3.53531 7.95996L31.9823 0.239132C32.5849 0.0216955 33.2306 -0.0488885 33.866 0.0332432C34.5013 0.115375 35.1079 0.34785 35.6355 0.711378C36.1629 1.07491 36.5961 1.559 36.899 2.12348C37.2018 2.68795 37.3658 3.31654 37.3771 3.95706L35.6912 30.1393C35.4913 33.247 31.4213 34.9762 28.7089 33.1053Z" fill="#E9327C"/><path d="M20.2197 37.6632L4.45132 6.82618C4.09087 6.12072 3.93226 5.32941 3.99297 4.53953C4.05367 3.74965 4.33135 2.99187 4.79536 2.34978C5.25939 1.70769 5.89172 1.20622 6.62264 0.900668C7.35356 0.595117 8.15466 0.497365 8.93761 0.618198L38.1604 5.12834C38.8331 5.23219 39.4717 5.49425 40.0236 5.89298C40.5753 6.29172 41.0245 6.81572 41.3344 7.42191C41.6441 8.0281 41.8057 8.69917 41.8055 9.37994C41.8054 10.0607 41.6437 10.7317 41.3338 11.3378L27.8719 37.6647C27.5104 38.3681 26.962 38.9583 26.2869 39.3703C25.6118 39.7823 24.8363 40.0002 24.0454 40C23.2545 39.9999 22.479 39.7817 21.804 39.3695C21.1291 38.9571 20.5809 38.3668 20.2197 37.6632Z" fill="#1DACE3"/><path d="M37.3055 4.9955L22.7382 2.74713L4.85269 7.60342L11.9917 21.5695L28.7089 33.1053C29.0777 33.357 29.4834 33.5497 29.9114 33.6767L36.2612 21.2592L37.3055 4.9955Z" fill="#001A49"/></g>
        <g id="logotype" transform="translate(48, 1.5)"><path fill="#111111" d="M11.07 32L6.17 32L16.18 8.38L21.25 8.38L31.14 32L26.07 32L23.65 26.23L13.55 26.23L11.07 32ZM18.63 13.57L15.10 22.08L22.30 22.08L18.77 13.57L18.63 13.57ZM37.12 32L32.28 32L32.28 7.50L37.12 7.50L37.12 32ZM46.10 39L41.26 39L41.26 19.28L38.87 19.28L38.87 14.50L43.77 14.50L43.77 17.36L45.00 17.36Q45.93 15.84 47.49 15.00Q49.05 14.15 51.27 14.15L51.27 14.15Q53.98 14.15 55.85 15.29Q57.71 16.42 58.68 18.47Q59.64 20.51 59.64 23.25L59.64 23.25Q59.64 25.99 58.70 28.05Q57.77 30.10 55.99 31.23Q54.21 32.35 51.68 32.35L51.68 32.35Q49.75 32.35 48.38 31.64Q47.01 30.92 46.22 29.61L46.22 29.61L46.10 29.61L46.10 39ZM50.36 28.15L50.36 28.15Q52.58 28.15 53.69 26.84Q54.80 25.52 54.80 23.25L54.80 23.25Q54.80 20.98 53.69 19.66Q52.58 18.35 50.36 18.35L50.36 18.35Q48.41 18.35 47.26 19.44Q46.10 20.54 46.10 22.46L46.10 22.46L46.10 24.04Q46.10 25.96 47.26 27.06Q48.41 28.15 50.36 28.15ZM66.29 32L61.45 32L61.45 7.50L66.29 7.50L66.29 17.01L66.40 17.01Q67.25 15.61 68.68 14.89Q70.11 14.18 72.06 14.18L72.06 14.18Q75.36 14.18 77.30 16.18Q79.24 18.17 79.24 21.53L79.24 21.53L79.24 32L74.40 32L74.40 22.43Q74.40 20.51 73.36 19.50Q72.33 18.50 70.34 18.50L70.34 18.50Q68.36 18.50 67.32 19.50Q66.29 20.51 66.29 22.43L66.29 22.43L66.29 32ZM87.55 32.32L87.55 32.32Q84.46 32.32 82.71 30.82Q80.96 29.32 80.96 26.87L80.96 26.87Q80.96 24.27 82.77 22.87Q84.58 21.47 87.96 21.47L87.96 21.47L92.98 21.47L92.98 20.80Q92.98 17.97 89.59 17.97L89.59 17.97Q86.65 17.97 86.03 20.01L86.03 20.01L81.22 20.01Q81.80 17.13 83.93 15.64Q86.06 14.15 89.59 14.15L89.59 14.15Q93.50 14.15 95.56 15.90Q97.61 17.65 97.61 21.00L97.61 21.00L97.61 27.22L99.89 27.22L99.89 32L94.99 32L94.99 29.14L93.76 29.14Q92.86 30.66 91.34 31.49Q89.83 32.32 87.55 32.32ZM88.28 28.65L88.28 28.65Q89.65 28.65 90.70 28.15Q91.75 27.65 92.36 26.82Q92.98 25.99 92.98 24.94L92.98 24.94L92.98 24.68L88.19 24.68Q85.57 24.68 85.57 26.63L85.57 26.63Q85.57 27.60 86.30 28.12Q87.03 28.65 88.28 28.65ZM112.40 32L107.09 32Q105.23 32 104.19 31.05Q103.15 30.10 103.15 28.15L103.15 28.15L103.15 18.29L100.15 18.29L100.15 14.50L103.21 14.50L103.21 9.25L107.94 9.25L107.94 14.50L111.99 14.50L111.99 18.29L108.00 18.29L108.00 28.21L112.40 28.21L112.40 32ZM119.63 32.32L119.63 32.32Q116.54 32.32 114.79 30.82Q113.04 29.32 113.04 26.87L113.04 26.87Q113.04 24.27 114.85 22.87Q116.66 21.47 120.04 21.47L120.04 21.47L125.06 21.47L125.06 20.80Q125.06 17.97 121.68 17.97L121.68 17.97Q118.73 17.97 118.12 20.01L118.12 20.01L113.30 20.01Q113.89 17.13 116.02 15.64Q118.15 14.15 121.68 14.15L121.68 14.15Q125.58 14.15 127.64 15.90Q129.70 17.65 129.70 21.00L129.70 21.00L129.70 27.22L131.97 27.22L131.97 32L127.07 32L127.07 29.14L125.85 29.14Q124.94 30.66 123.43 31.49Q121.91 32.32 119.63 32.32ZM120.36 28.65L120.36 28.65Q121.73 28.65 122.78 28.15Q123.83 27.65 124.45 26.82Q125.06 25.99 125.06 24.94L125.06 24.94L125.06 24.68L120.28 24.68Q117.65 24.68 117.65 26.63L117.65 26.63Q117.65 27.60 118.38 28.12Q119.11 28.65 120.36 28.65ZM141.30 32.35L141.30 32.35Q137.45 32.35 135.22 30.73Q132.99 29.11 132.82 26.20L132.82 26.20L137.48 26.20Q137.72 27.45 138.69 28.06Q139.67 28.68 141.51 28.68L141.51 28.68Q144.51 28.68 144.51 27.01L144.51 27.01Q144.51 26.34 144.06 25.95Q143.61 25.55 142.56 25.35L142.56 25.35L138.65 24.59Q133.40 23.57 133.40 19.66L133.40 19.66Q133.40 17.15 135.41 15.65Q137.43 14.15 140.98 14.15L140.98 14.15Q144.51 14.15 146.58 15.70Q148.65 17.24 148.86 20.01L148.86 20.01L144.19 20.01Q143.87 18.79 143.05 18.23Q142.24 17.68 140.69 17.68L140.69 17.68Q139.35 17.68 138.65 18.07Q137.95 18.47 137.95 19.25L137.95 19.25Q137.95 19.81 138.39 20.19Q138.83 20.57 139.73 20.74L139.73 20.74L143.73 21.50Q146.47 22.05 147.75 23.28Q149.03 24.50 149.03 26.60L149.03 26.60Q149.03 29.32 147.04 30.83Q145.04 32.35 141.30 32.35ZM155.54 32L150.70 32L150.70 7.50L155.54 7.50L155.54 20.77L155.65 20.77L162.54 14.50L168.31 14.50L160.88 21.21L168.87 32L163.21 32L157.46 24.15L155.54 25.73L155.54 32Z"/></g>
        
      </svg>
    