
      <svg data-logo="logo" xmlns="http://www.w3.org/2000/svg" viewBox="0 0 264 43">
        <g id="logogram" transform="translate(0, 1) rotate(0) "><path d="M20 0.889954C31.0457 0.889954 40 9.84426 40 20.89V34.89C40 38.2037 37.3137 40.89 34 40.89H21V32.1161C21 30.114 21.1224 28.0404 22.1725 26.3357C23.6625 23.9168 26.1515 22.1871 29.0764 21.7093L29.4595 21.6467C29.7828 21.5358 30 21.2318 30 20.89C30 20.5481 29.7828 20.2441 29.4595 20.1332L29.0764 20.0706C24.836 19.378 21.512 16.054 20.8193 11.8135L20.7568 11.4305C20.6459 11.1071 20.3418 10.89 20 10.89C19.6582 10.89 19.3541 11.1071 19.2432 11.4305L19.1807 11.8135C18.7029 14.7385 16.9731 17.2274 14.5542 18.7175C12.8496 19.7676 10.7759 19.89 8.77382 19.89H0.0245667C0.545597 9.30884 9.28963 0.889954 20 0.889954Z" fill="#F06225"/><path d="M0 21.89H8.77382C10.7759 21.89 12.8495 22.0123 14.5541 23.0624C15.8852 23.8823 17.0076 25.0047 17.8276 26.3358C18.8776 28.0405 19 30.114 19 32.1161V40.89H6C2.68629 40.89 0 38.2037 0 34.89V21.89Z" fill="#F06225"/><path d="M40 2.88995C40 3.99452 39.1046 4.88995 38 4.88995C36.8954 4.88995 36 3.99452 36 2.88995C36 1.78538 36.8954 0.889954 38 0.889954C39.1046 0.889954 40 1.78538 40 2.88995Z" fill="#F06225"/></g>
        <g id="logotype" transform="translate(46, 7.5)"><path fill="#111111" d="M6.70 0.75L28.86 0.75Q32.11 0.75 34.54 1.64Q36.98 2.53 38.57 4.06Q40.16 5.58 40.97 7.50Q41.77 9.43 41.77 11.49L41.77 11.49Q41.77 13.70 40.95 15.68Q40.13 17.66 38.50 19.20Q36.87 20.73 34.45 21.63Q32.04 22.52 28.86 22.52L28.86 22.52L21.33 22.52Q21.33 22.52 21.31 22.54Q21.30 22.55 21.28 22.55Q21.26 22.55 21.26 22.59L21.26 22.59L21.26 27L6.70 27Q6.70 24.66 6.70 22.31Q6.70 19.96 6.70 17.62Q6.70 15.27 6.70 12.93Q6.70 10.58 6.70 8.24L6.70 8.24Q6.70 6.35 6.70 4.48Q6.70 2.60 6.70 0.75L6.70 0.75ZM21.33 14.92L24.55 14.92Q25.60 14.92 26.32 14.56Q27.04 14.19 27.39 13.61Q27.74 13.03 27.74 12.44L27.74 12.44Q27.74 11.81 27.39 11.27Q27.04 10.72 26.34 10.38Q25.64 10.02 24.55 10.02L24.55 10.02L21.33 10.02Q21.30 10.02 21.28 10.04Q21.26 10.06 21.26 10.09L21.26 10.09L21.26 14.89Q21.26 14.89 21.28 14.89Q21.30 14.89 21.31 14.91Q21.33 14.92 21.33 14.92L21.33 14.92ZM54.86 27L42.75 27Q42.75 24.20 42.75 21.42Q42.75 18.63 42.75 15.85Q42.75 13.07 42.75 10.30L42.75 10.30Q42.75 7.92 42.75 5.53Q42.75 3.13 42.75 0.75L42.75 0.75L54.86 0.75Q54.86 2.22 54.86 3.67Q54.86 5.12 54.86 6.59L54.86 6.59Q54.86 11.67 54.86 16.78Q54.86 21.89 54.86 27L54.86 27ZM72.08 5.30L84.19 5.30Q84.19 7.64 84.19 10.02Q84.19 12.40 84.19 14.78L84.19 14.78Q84.19 16.81 84.19 18.86Q84.19 20.91 84.19 22.94Q84.19 24.97 84.19 27L84.19 27L72.08 27Q72.08 25.53 72.08 24.02Q72.08 22.52 72.08 21.00Q72.08 19.48 72.08 18.04L72.08 18.04Q72.08 14.78 72.08 11.65Q72.08 8.52 72.08 5.30L72.08 5.30ZM56.26 5.30L68.37 5.30Q68.37 7.15 68.37 9.03Q68.37 10.90 68.37 12.75Q68.37 14.61 68.37 16.50L68.37 16.50Q68.37 17.27 68.63 17.74Q68.90 18.21 69.33 18.41Q69.77 18.60 70.26 18.60L70.26 18.60Q70.75 18.60 71.26 18.42Q71.77 18.25 72.08 18.00L72.08 18.00L69.28 26.65Q68.30 27.14 66.88 27.45Q65.47 27.77 63.93 27.77L63.93 27.77Q62.53 27.77 61.16 27.44Q59.80 27.11 58.69 26.34Q57.59 25.57 56.93 24.30Q56.26 23.04 56.26 21.16L56.26 21.16Q56.26 18.63 56.26 16.11Q56.26 13.59 56.26 11.07L56.26 11.07Q56.26 9.64 56.26 8.19Q56.26 6.73 56.26 5.30L56.26 5.30ZM85.59 5.30L97.70 5.30Q97.70 7.40 97.70 9.52Q97.70 11.63 97.70 13.75Q97.70 15.87 97.70 18.00L97.70 18.00Q97.70 20.24 97.70 22.48Q97.70 24.73 97.70 27L97.70 27L85.59 27Q85.59 23.54 85.59 20.07Q85.59 16.60 85.59 13.14L85.59 13.14Q85.59 11.18 85.59 9.22Q85.59 7.26 85.59 5.30L85.59 5.30ZM97.67 18.67L97.67 18.67L99.56 9.25Q99.87 7.75 100.80 6.75Q101.72 5.75 102.98 5.23Q104.25 4.70 105.58 4.58Q106.91 4.46 108.03 4.69Q109.15 4.91 109.81 5.44L109.81 5.44L107.15 18.46Q106.14 17.62 104.68 17.30Q103.23 16.99 101.76 17.08Q100.29 17.16 99.17 17.59Q98.05 18.00 97.67 18.67ZM122.94 27L110.83 27Q110.83 25.39 110.83 23.80Q110.83 22.20 110.83 20.61Q110.83 19.02 110.83 17.45L110.83 17.45Q110.83 16.78 110.83 16.11Q110.83 15.45 110.83 14.78L110.83 14.78Q112.86 14.78 114.87 14.78Q116.88 14.78 118.91 14.78Q120.94 14.78 122.94 14.78L122.94 14.78Q122.94 16.81 122.94 18.84Q122.94 20.88 122.94 22.92Q122.94 24.97 122.94 27L122.94 27ZM110.83 14.78L110.83 14.78Q110.83 12.40 110.83 10.02Q110.83 7.64 110.83 5.30L110.83 5.30L122.94 5.30Q122.94 6.45 122.94 7.61Q122.94 8.76 122.94 9.92Q122.94 11.07 122.94 12.23L122.94 12.23Q122.94 12.23 122.92 12.25Q122.90 12.26 122.90 12.26L122.90 12.26Q119.89 12.89 116.86 13.52Q113.83 14.15 110.83 14.78ZM156.54 27L144.43 27Q144.43 25.11 144.43 23.24Q144.43 21.36 144.43 19.49Q144.43 17.62 144.43 15.76L144.43 15.76Q144.43 15.10 144.08 14.61Q143.73 14.12 143.13 13.80Q142.53 13.49 141.80 13.33Q141.06 13.17 140.26 13.17L140.26 13.17Q138.23 13.17 137.23 13.98Q136.24 14.78 136.24 15.76L136.24 15.76Q136.24 16.50 136.67 17.09Q137.11 17.69 138.00 18.06Q138.90 18.42 140.26 18.42L140.26 18.42Q141.73 18.42 142.89 17.90Q144.04 17.38 144.39 16.18L144.39 16.18L141.59 27Q140.47 27.28 139.46 27.40Q138.44 27.52 137.11 27.52L137.11 27.52Q134.42 27.52 132.03 26.77Q129.66 26.02 127.85 24.55Q126.05 23.08 125.02 20.98Q123.98 18.88 123.98 16.18L123.98 16.18Q123.98 13.87 124.72 12.04Q125.46 10.20 126.73 8.83Q128.01 7.47 129.69 6.56Q131.37 5.65 133.28 5.21Q135.19 4.77 137.15 4.77L137.15 4.77Q137.95 4.77 138.79 4.84Q139.63 4.91 140.44 5.05Q141.24 5.19 141.96 5.44Q142.68 5.68 143.29 6.03Q143.90 6.38 144.36 6.84L144.36 6.84Q144.39 6.87 144.41 6.86Q144.43 6.84 144.43 6.80L144.43 6.80Q144.43 5.40 144.43 3.78Q144.43 2.15 144.43 0.75L144.43 0.75L156.54 0.75Q156.54 4.11 156.54 7.49Q156.54 10.86 156.54 14.22L156.54 14.22Q156.54 17.41 156.54 20.59Q156.54 23.78 156.54 27L156.54 27ZM173.41 19.09L173.41 19.09Q175.26 19.09 176.28 18.42Q177.29 17.76 177.33 16.60L177.33 16.60L188.14 20.14Q187.51 22.34 185.46 24.15Q183.42 25.95 180.30 27Q177.19 28.05 173.34 28.05L173.34 28.05Q170.05 28.05 167.19 27.32Q164.34 26.58 162.19 25.09Q160.04 23.61 158.81 21.36Q157.59 19.13 157.59 16.15L157.59 16.15Q157.59 13.17 158.81 10.93Q160.04 8.69 162.19 7.21Q164.34 5.72 167.21 4.98Q170.08 4.25 173.34 4.25L173.34 4.25Q176.66 4.25 179.44 4.98Q182.23 5.72 184.24 7.24Q186.25 8.76 187.35 11.09Q188.46 13.42 188.46 16.60L188.46 16.60L169.38 16.60Q169.38 16.60 169.36 16.60Q169.35 16.60 169.35 16.60Q169.35 16.60 169.35 16.64L169.35 16.64Q169.35 17.16 169.63 17.62Q169.91 18.07 170.41 18.41Q170.92 18.74 171.67 18.91Q172.43 19.09 173.41 19.09ZM173.34 13.10L173.34 13.10Q171.62 13.10 170.50 13.72Q169.38 14.33 169.38 15.45L169.38 15.45Q169.38 15.48 169.38 15.50Q169.38 15.52 169.38 15.52Q169.38 15.52 169.40 15.52Q169.42 15.52 169.42 15.52L169.42 15.52L177.22 15.52Q177.26 15.52 177.26 15.50Q177.26 15.48 177.26 15.45L177.26 15.45Q177.26 14.89 176.96 14.45Q176.66 14.01 176.14 13.72Q175.61 13.42 174.89 13.26Q174.18 13.10 173.34 13.10ZM205.01 5.30L217.19 5.30Q216.35 8.03 215.51 10.74Q214.67 13.45 213.85 16.15Q213.03 18.84 212.19 21.56Q211.35 24.27 210.51 27L210.51 27L193.81 27Q193.15 24.83 192.48 22.66Q191.82 20.49 191.15 18.32Q190.49 16.15 189.80 13.98Q189.12 11.81 188.46 9.64Q187.79 7.47 187.13 5.30L187.13 5.30L199.97 5.30Q200.18 6.52 200.37 7.73Q200.57 8.94 200.78 10.16Q200.99 11.39 201.18 12.61Q201.37 13.84 201.58 15.06Q201.79 16.29 201.98 17.50Q202.18 18.70 202.39 19.93L202.39 19.93Q202.42 20.11 202.44 20.19Q202.46 20.28 202.49 20.28Q202.53 20.28 202.54 20.19Q202.56 20.11 202.60 19.93L202.60 19.93Q202.81 18.70 203.00 17.50Q203.19 16.29 203.40 15.06Q203.61 13.84 203.80 12.61Q204.00 11.39 204.21 10.16Q204.42 8.94 204.61 7.73Q204.80 6.52 205.01 5.30L205.01 5.30Z"/></g>
        
      </svg>
    