<svg version="1.1" id="Layer_1" xmlns="http://www.w3.org/2000/svg" xmlns:xlink="http://www.w3.org/1999/xlink" x="0px" y="0px"
	 width="100%" viewBox="0 0 1024 768" enable-background="new 0 0 1024 768" xml:space="preserve">
<path fill="#000000" opacity="1.000000" stroke="none" 
	d="
M755.130859,367.318481 
	C747.297852,367.338837 747.300171,367.338837 747.291809,374.660858 
	C747.284607,380.989746 747.156494,387.321381 747.306458,393.646484 
	C747.388550,397.111328 745.993103,398.411133 742.582275,398.326599 
	C736.423645,398.173920 730.257324,398.193909 724.096924,398.299927 
	C720.912231,398.354736 719.645081,397.050110 719.651428,393.856018 
	C719.704224,367.041534 719.702698,340.226746 719.627502,313.412354 
	C719.618652,310.253693 720.750488,308.811584 723.970703,308.856323 
	C730.298401,308.944275 736.628906,308.954376 742.956543,308.870850 
	C746.207031,308.828003 747.352112,310.348846 747.310425,313.460205 
	C747.216736,320.453888 747.526611,327.459656 747.227722,334.441437 
	C747.044678,338.718445 748.676147,339.925781 752.716797,339.769348 
	C759.368896,339.511871 766.042419,339.554718 772.698792,339.749603 
	C777.754639,339.897675 781.272034,337.830322 783.785095,333.550568 
	C787.747314,326.802856 791.931580,320.183624 795.805115,313.386475 
	C797.660583,310.130554 800.008179,308.685669 803.840881,308.802582 
	C811.602051,309.039368 819.375488,308.873260 828.695679,308.873260 
	C819.185364,324.870361 811.552856,340.279083 799.484253,353.597473 
	C811.471130,366.517273 818.849243,382.285095 828.955444,398.157227 
	C818.294983,398.157227 809.235657,398.227814 800.178955,398.104187 
	C798.091431,398.075714 797.318848,396.008423 796.378845,394.466827 
	C792.131104,387.500793 787.821533,380.569672 783.726135,373.514587 
	C781.189087,369.144165 777.489868,367.269287 772.597656,367.292236 
	C766.934875,367.318817 761.271912,367.311493 755.130859,367.318481 
M741.669861,320.702911 
	C742.489014,315.677643 740.470032,313.536377 735.348328,314.314606 
	C733.883484,314.537201 732.334534,314.506409 730.860718,314.312805 
	C726.440491,313.732117 725.153198,315.584869 725.196289,319.953583 
	C725.397034,340.270782 725.152039,360.592224 725.331482,380.909851 
	C725.451904,394.546051 722.485657,392.449005 737.683289,392.700348 
	C740.776855,392.751465 741.751587,391.436249 741.705566,388.508453 
	C741.593079,381.348663 741.815491,374.182068 741.625732,367.025574 
	C741.525146,363.231934 742.764221,361.588226 746.755188,361.677643 
	C755.411438,361.871735 764.075195,361.711487 772.735596,361.752167 
	C779.821289,361.785461 785.139160,364.846954 788.748962,371.024353 
	C792.276672,377.061401 795.993958,382.987793 799.632263,388.960144 
	C800.489075,390.366638 801.109375,392.281281 802.963867,392.413116 
	C807.982727,392.769714 813.033752,393.056396 819.027893,392.071869 
	C810.696777,379.717865 805.307556,366.544861 794.450134,357.202911 
	C791.176025,354.385803 791.283203,352.643463 794.493042,349.838837 
	C805.359863,340.344116 810.804321,327.123993 819.228394,314.350037 
	C814.221130,314.350037 810.597595,314.582306 807.017578,314.287109 
	C803.157898,313.968811 800.905334,315.499908 799.062073,318.838959 
	C795.766479,324.808868 791.989319,330.510773 788.507996,336.380829 
	C785.065308,342.185760 779.968384,345.173370 773.304810,345.270325 
	C764.313049,345.401184 755.316406,345.214600 746.325073,345.359711 
	C742.856812,345.415680 741.569824,344.047150 741.645508,340.641174 
	C741.786133,334.315552 741.675842,327.984314 741.669861,320.702911 
z"/>
<path fill="#000000" opacity="1.000000" stroke="none" 
	d="
M604.691162,377.195038 
	C586.658142,346.129608 607.214905,309.441559 642.720703,308.932587 
	C660.875732,308.672333 679.038940,309.005524 697.195190,308.790833 
	C701.925537,308.734894 703.368408,310.591187 703.168152,314.994995 
	C702.933838,320.148956 702.820740,325.341003 703.177795,330.480194 
	C703.540588,335.701904 701.232605,337.006805 696.434753,336.956146 
	C678.944397,336.771545 661.450806,336.887421 643.958435,336.906158 
	C640.622131,336.909729 637.300476,336.963898 634.247864,338.673645 
	C627.663025,342.361847 624.142273,349.888550 625.829956,356.814056 
	C627.910156,365.350067 633.977112,370.596008 642.449585,370.653595 
	C660.440918,370.775879 678.433655,370.685028 696.425781,370.696838 
	C703.036255,370.701172 703.115662,370.787964 703.121948,377.398468 
	C703.127197,382.895966 703.045471,388.394073 703.106262,393.890778 
	C703.141052,397.037445 701.807983,398.342255 698.596252,398.326019 
	C678.938782,398.226624 659.257507,398.816986 639.630432,398.027313 
	C624.820312,397.431427 613.040955,390.146729 604.691162,377.195038 
M665.500061,314.348633 
	C657.506348,314.356476 649.509827,314.231750 641.519470,314.399353 
	C624.103516,314.764618 608.306458,327.435638 604.417908,343.986206 
	C598.580933,368.829437 616.819824,392.318329 642.361572,392.632568 
	C657.347534,392.816956 672.338013,392.737610 687.325684,392.647736 
	C698.785828,392.579010 697.318298,394.353851 697.753052,382.231903 
	C697.932617,377.225311 696.081665,376.075745 691.438416,376.145599 
	C675.621033,376.383606 659.797974,376.234589 643.977051,376.239227 
	C638.336304,376.240875 633.079529,375.014282 628.585510,371.400543 
	C621.069580,365.356781 617.953674,355.414551 620.833191,346.751038 
	C623.971191,337.309845 632.366882,330.966705 642.780151,330.810150 
	C657.265564,330.592316 671.757629,330.860321 686.244690,330.708740 
	C699.331238,330.571777 697.431641,333.056946 697.678711,318.939423 
	C697.739441,315.464600 696.414734,314.234985 692.978394,314.295135 
	C684.154663,314.449646 675.326538,314.348267 665.500061,314.348633 
z"/>
<path fill="#000000" opacity="1.000000" stroke="none" 
	d="
M355.334290,342.000061 
	C355.335571,349.824951 355.674500,357.170654 355.224152,364.467651 
	C354.898010,369.751587 356.920898,370.850739 361.796143,370.800812 
	C384.101288,370.572266 406.410065,370.696777 428.717560,370.709381 
	C435.307129,370.713104 435.319366,370.735535 435.336792,377.327576 
	C435.351288,382.821167 435.224792,388.317688 435.370087,393.807343 
	C435.454163,396.984497 434.261414,398.298401 431.026550,398.293213 
	C398.064911,398.240417 365.103149,398.245758 332.141479,398.294678 
	C328.905121,398.299469 327.735718,396.858093 327.740814,393.752319 
	C327.784790,366.950165 327.795624,340.147797 327.725922,313.345764 
	C327.717560,310.119904 329.024200,308.827057 332.163147,308.867645 
	C338.155182,308.945099 344.153534,309.037842 350.140228,308.844818 
	C353.968658,308.721344 355.488647,310.060822 355.395844,314.033325 
	C355.182068,323.184387 355.331665,332.343964 355.334290,342.000061 
M417.478973,392.669678 
	C429.850464,392.673950 429.613556,392.667725 429.885864,382.319031 
	C430.013458,377.468536 428.417877,376.086182 423.644348,376.132538 
	C401.012329,376.352234 378.376221,376.135925 355.743530,376.317139 
	C351.177002,376.353729 349.614502,374.870361 349.677094,370.288452 
	C349.886261,354.980011 349.805115,339.666656 349.734680,324.355652 
	C349.681549,312.805328 351.090790,314.735535 339.594666,314.239868 
	C334.349182,314.013733 333.178101,315.989777 333.228577,320.872528 
	C333.455536,342.838593 333.438416,364.809387 333.233978,386.775909 
	C333.191925,391.292847 334.395966,392.810333 339.097046,392.771576 
	C364.891571,392.558899 390.688721,392.669556 417.478973,392.669678 
z"/>
<path fill="#000000" opacity="1.000000" stroke="none" 
	d="
M256.999939,398.311401 
	C238.852829,398.305115 221.204300,398.175140 203.559555,398.376221 
	C198.988525,398.428314 197.534714,396.947632 197.566696,392.366486 
	C197.748062,366.396484 197.743088,340.424072 197.578278,314.453888 
	C197.550293,310.045135 199.015564,308.718384 203.343369,308.749878 
	C226.982666,308.922058 250.625336,308.676758 274.263794,308.899597 
	C297.708496,309.120575 311.215668,329.445312 302.367188,350.939148 
	C301.508118,353.025909 301.724274,354.598297 302.516144,356.572021 
	C311.114685,378.004303 297.552826,398.143311 274.481140,398.293976 
	C268.820953,398.330963 263.160339,398.307037 256.999939,398.311401 
M203.250183,347.500000 
	C203.254089,360.819550 203.364639,374.140472 203.194031,387.457794 
	C203.145645,391.235291 204.099823,392.775909 208.211853,392.744781 
	C230.853775,392.573181 253.499435,392.836700 276.140259,392.604187 
	C294.344025,392.417267 305.243195,373.726166 296.606873,357.652710 
	C294.967621,354.601837 295.043793,352.490326 296.678162,349.471313 
	C305.287659,333.567657 294.181519,314.565002 276.163452,314.414368 
	C253.521790,314.225067 230.876663,314.453033 208.234970,314.266083 
	C204.111526,314.232025 203.118362,315.777649 203.195450,319.529205 
	C203.380096,328.516052 203.252441,337.509308 203.250183,347.500000 
z"/>
<path fill="#000000" opacity="1.000000" stroke="none" 
	d="
M554.264160,317.644043 
	C570.188293,330.313477 576.473694,349.840210 570.439941,367.200165 
	C563.722351,386.527252 547.376404,398.347931 526.804810,398.208405 
	C515.353455,398.130768 503.793823,399.617279 492.457611,397.265442 
	C468.270721,392.247589 454.046356,371.974640 456.723358,346.832123 
	C458.947815,325.940002 478.612823,309.186554 501.364258,308.891144 
	C509.517792,308.785278 517.674316,308.930847 525.828613,308.860443 
	C536.122803,308.771576 545.570068,311.361053 554.264160,317.644043 
M487.327484,390.274567 
	C503.091980,394.210693 519.099731,393.620239 534.916626,391.566589 
	C553.441162,389.161377 566.596069,373.111969 566.839905,354.365509 
	C567.093567,334.866302 554.289001,318.715149 535.701904,315.303650 
	C524.473511,313.242828 513.112915,314.508514 501.818298,314.424713 
	C482.426758,314.280792 466.002045,327.239075 462.506378,344.958618 
	C458.711182,364.196411 468.358917,382.214569 487.327484,390.274567 
z"/>
<path fill="#000000" opacity="1.000000" stroke="none" 
	d="
M528.061035,286.034515 
	C524.603027,286.104675 523.413025,284.532562 523.636841,281.661774 
	C523.662598,281.331299 523.637817,280.996552 523.630859,280.663879 
	C523.374451,268.424683 523.378235,268.514648 511.007904,269.045105 
	C507.703217,269.186798 506.000244,270.157654 506.320862,273.711823 
	C506.499512,275.692383 506.365662,277.702087 506.354950,279.698578 
	C506.323761,285.512695 502.852661,287.839600 497.377167,285.828979 
	C495.378815,285.095184 495.133545,283.500000 495.130676,281.824493 
	C495.110107,269.845703 495.144470,257.866852 495.162292,245.888000 
	C495.169189,241.252533 498.523865,241.897247 501.507568,241.778839 
	C504.718292,241.651413 506.708740,242.634354 506.353516,246.275803 
	C506.289246,246.934616 506.262909,247.620865 506.371674,248.268829 
	C506.929260,251.590408 504.470825,256.352417 507.817230,257.991791 
	C511.848175,259.966492 516.950928,258.768616 521.581360,258.438019 
	C523.202820,258.322266 523.541199,256.844299 523.562866,255.426025 
	C523.598328,253.097214 523.609863,250.768005 523.622009,248.438904 
	C523.656006,241.897110 524.322754,241.388107 530.792603,241.761017 
	C533.750305,241.931503 535.032532,243.265793 535.031189,246.074234 
	C535.025513,257.886658 534.955627,269.699341 535.018311,281.511383 
	C535.044006,286.365509 531.766846,286.104431 528.061035,286.034515 
z"/>
<path fill="#000000" opacity="1.000000" stroke="none" 
	d="
M599.544128,251.789185 
	C594.448059,252.026993 589.790588,252.149200 585.132690,252.166153 
	C582.822327,252.174561 581.284851,252.728699 581.295105,255.491379 
	C581.304993,258.164703 582.703186,258.955719 585.067322,258.939636 
	C588.729919,258.914673 592.394470,259.028290 596.055237,258.947266 
	C599.618774,258.868347 601.136841,260.409546 601.124512,264.044098 
	C601.112549,267.573486 599.883911,269.319366 596.174561,269.199310 
	C592.350220,269.075562 588.517212,269.247070 584.688232,269.229370 
	C582.465698,269.219116 581.286621,270.068787 581.305664,272.463684 
	C581.324707,274.857239 582.526794,275.681458 584.739319,275.662964 
	C588.734741,275.629517 592.739380,275.839233 596.724243,275.635956 
	C600.731567,275.431580 601.364929,277.583221 601.352661,280.911438 
	C601.341248,283.996490 600.848389,286.109161 597.097900,286.062195 
	C589.440491,285.966248 581.780945,286.017242 574.122437,286.049927 
	C571.247559,286.062225 569.837219,284.793365 569.847412,281.840546 
	C569.888733,269.853119 569.885498,257.865448 569.868530,245.877945 
	C569.864746,243.238571 570.979614,241.841995 573.732849,241.849594 
	C581.557983,241.871201 589.386414,241.712036 597.207336,241.891968 
	C601.773193,241.997009 602.800720,245.872681 599.544128,251.789185 
z"/>
<path fill="#000000" opacity="1.000000" stroke="none" 
	d="
M448.186218,265.016479 
	C448.176819,270.842041 448.068756,276.172699 448.183685,281.498535 
	C448.280914,286.003571 445.299927,285.990997 442.136047,286.026764 
	C438.998108,286.062256 436.563904,285.672424 436.651062,281.528168 
	C436.815643,273.705353 436.430389,265.865143 436.773254,258.054108 
	C436.976196,253.430328 435.445923,251.699661 430.851471,252.093842 
	C427.927887,252.344650 424.773438,252.695007 424.606049,247.936264 
	C424.450653,243.517883 425.653381,241.581116 430.441162,241.757019 
	C438.922150,242.068588 447.423126,241.879028 455.915253,241.820831 
	C459.301025,241.797638 460.176819,243.733810 460.109863,246.637878 
	C460.050934,249.194962 460.196014,251.732788 456.581665,252.112228 
	C454.003876,252.382858 450.744049,250.960938 448.992004,253.261734 
	C447.144104,255.688492 448.423645,259.069458 448.191681,262.022461 
	C448.126678,262.849884 448.183319,263.686890 448.186218,265.016479 
z"/>
<path fill="#000000" opacity="1.000000" stroke="none" 
	d="
M249.000015,334.991638 
	C257.321960,335.001526 265.144623,334.954529 272.965393,335.057281 
	C275.205017,335.086731 278.258392,334.798676 278.334229,338.044189 
	C278.412567,341.398010 275.362244,341.071930 273.109863,341.080170 
	C258.464661,341.133759 243.819122,341.131165 229.173859,341.089844 
	C226.902130,341.083435 223.995071,341.408112 224.111710,337.922150 
	C224.214340,334.854980 226.923706,335.088287 229.028778,335.059570 
	C235.518295,334.970978 242.009491,335.005157 249.000015,334.991638 
z"/>
<path fill="#000000" opacity="1.000000" stroke="none" 
	d="
M234.078918,372.106964 
	C231.600143,372.082001 229.607803,372.092804 227.618195,372.024200 
	C225.553421,371.953003 223.996017,371.167725 224.094406,368.796356 
	C224.182510,366.673462 225.736816,366.049591 227.533249,365.998718 
	C230.850266,365.904755 234.170303,365.893768 237.489105,365.890991 
	C248.609268,365.881714 259.729431,365.885193 270.849579,365.901123 
	C272.340820,365.903259 273.843842,365.906982 275.320068,366.086060 
	C277.115875,366.303864 278.589050,367.134979 278.483246,369.212555 
	C278.390594,371.032013 276.892639,371.794861 275.382019,371.889893 
	C271.910126,372.108276 268.421509,372.104340 264.939514,372.111176 
	C254.815247,372.130981 244.690887,372.111755 234.078918,372.106964 
z"/>
<path fill="#000000" opacity="1.000000" stroke="none" 
	d="
M516.994141,376.236816 
	C511.499420,376.236481 506.502045,376.308960 501.507446,376.220703 
	C488.194397,375.985504 478.796234,366.942169 478.139465,353.818848 
	C477.557617,342.192535 487.224396,331.657471 499.963654,330.941589 
	C509.590698,330.400665 519.302612,330.369690 528.923828,330.965668 
	C542.412659,331.801117 550.891296,341.946686 550.325806,355.535278 
	C549.849670,366.976166 540.036438,375.883942 527.484741,376.211578 
	C524.156128,376.298462 520.823547,376.232269 516.994141,376.236816 
M495.072052,369.678040 
	C507.465271,371.500153 519.969727,371.601044 532.265564,369.791656 
	C540.970642,368.510681 545.880188,359.901825 544.688904,350.972412 
	C543.636658,343.084686 536.576416,336.666229 528.542297,336.631714 
	C519.062439,336.591003 509.581299,336.795074 500.101105,336.922424 
	C496.877045,336.965759 493.936005,337.820770 491.179108,339.641113 
	C480.531281,346.671478 481.788544,364.202332 495.072052,369.678040 
z"/>
</svg>