<svg version="1.1" id="Layer_1" xmlns="http://www.w3.org/2000/svg" xmlns:xlink="http://www.w3.org/1999/xlink" x="0px" y="0px"
	 width="100%" viewBox="0 0 1024 768" enable-background="new 0 0 1024 768" xml:space="preserve">
<path fill="#000000" opacity="1.000000" stroke="none" 
	d="
M513.321655,398.116272 
	C513.445679,380.530182 513.710510,363.383057 513.525879,346.240723 
	C513.473450,341.370697 515.060242,339.670807 519.801636,339.946991 
	C524.618225,340.227570 529.464600,339.964142 534.297424,340.003754 
	C540.852783,340.057495 541.142761,340.349030 541.169373,346.708954 
	C541.195862,353.041931 541.325500,359.379700 541.127625,365.706543 
	C541.008606,369.509888 542.254395,371.161011 546.268066,371.015778 
	C552.759277,370.780914 559.271118,370.785797 565.763306,371.008636 
	C571.218018,371.195862 574.994141,368.860474 577.699829,364.338562 
	C581.720459,357.619019 585.862549,350.969788 589.756714,344.178101 
	C591.427795,341.263672 593.494446,339.852264 596.950989,339.953217 
	C603.445068,340.142822 609.949097,339.970062 616.448425,340.018372 
	C618.058411,340.030334 619.819092,339.697510 621.753235,341.803833 
	C612.520874,356.043396 605.220215,371.739990 593.123047,384.803558 
	C605.271729,397.760986 612.579468,413.446991 622.587830,429.369629 
	C614.491577,429.369629 607.889832,428.914764 601.380615,429.495972 
	C594.699524,430.092499 590.531494,427.985931 587.618774,421.774353 
	C584.874817,415.922699 581.017944,410.595367 577.687988,405.015198 
	C575.146484,400.756287 571.472656,398.791351 566.484558,398.893982 
	C559.820862,399.031097 553.146179,399.106110 546.488098,398.871490 
	C542.243896,398.721924 540.962219,400.511108 541.103394,404.515442 
	C541.326477,410.840607 540.930298,417.190521 541.232971,423.509033 
	C541.457520,428.198090 539.596313,429.688293 535.096680,429.432343 
	C529.780701,429.129944 524.425598,429.171112 519.104126,429.419189 
	C515.063477,429.607513 513.473633,428.264771 513.553406,424.044037 
	C513.714050,415.553070 513.406372,407.053223 513.321655,398.116272 
z"/>
<path fill="#000000" opacity="1.000000" stroke="none" 
	d="
M474.989807,429.367798 
	C452.996552,429.367676 431.500092,429.256805 410.006439,429.452881 
	C405.291290,429.495911 403.605133,428.097168 403.640747,423.230133 
	C403.829712,397.403656 403.807556,371.574554 403.644836,345.747681 
	C403.617340,341.385895 405.078339,339.886780 409.394348,339.910400 
	C433.388550,340.041718 457.385345,339.815796 481.378204,340.038788 
	C497.912628,340.192383 510.041168,351.464996 511.871765,367.941956 
	C512.419556,372.872528 510.808197,377.517822 508.731567,381.907684 
	C507.797150,383.882965 507.616699,385.440094 508.617981,387.496338 
	C519.059021,408.939148 501.040558,430.697662 480.985291,429.376770 
	C479.160431,429.256592 477.320496,429.365112 474.989807,429.367798 
M474.489929,346.039764 
	C454.511108,346.030548 434.531830,346.087128 414.553833,345.953918 
	C410.775574,345.928741 409.233246,347.003754 409.260437,351.048523 
	C409.412659,373.690216 409.401794,396.333832 409.269867,418.975739 
	C409.248108,422.710571 410.553192,423.891876 414.193848,423.871948 
	C436.835846,423.747772 459.480804,423.969116 482.120728,423.716064 
	C500.759521,423.507751 511.626801,405.083282 502.872314,388.655762 
	C501.219391,385.554138 501.450562,383.470703 503.039032,380.508057 
	C509.583313,368.302185 504.614227,354.128815 492.152679,348.081573 
	C486.764404,345.466797 481.094452,346.250122 474.489929,346.039764 
z"/>
<path fill="#000000" opacity="1.000000" stroke="none" 
	d="
M468.993225,372.318787 
	C457.330780,372.315765 446.167053,372.328461 435.003479,372.293945 
	C432.893707,372.287415 430.211090,372.703552 430.276611,369.424988 
	C430.341949,366.156250 433.072876,366.687653 435.142181,366.681335 
	C449.971344,366.636169 464.800690,366.629822 479.629883,366.664642 
	C481.724670,366.669556 484.632324,366.278717 484.712219,369.265167 
	C484.800812,372.578339 481.783051,372.249664 479.489044,372.292297 
	C476.157684,372.354309 472.824432,372.314514 468.993225,372.318787 
z"/>
<path fill="#000000" opacity="1.000000" stroke="none" 
	d="
M470.982422,403.216309 
	C458.860168,403.208008 447.234833,403.215424 435.609711,403.172272 
	C433.999573,403.166321 432.212463,403.592010 430.931366,402.138489 
	C430.224304,401.336304 430.132568,400.320129 430.502686,399.331177 
	C431.292938,397.219666 433.185944,397.700623 434.758118,397.695526 
	C448.043976,397.652405 461.330017,397.662445 474.615997,397.659332 
	C476.608856,397.658844 478.602112,397.650024 480.594421,397.687042 
	C482.475861,397.721985 484.672760,397.853485 484.755676,400.215607 
	C484.850586,402.920471 482.456299,403.084625 480.446472,403.152679 
	C477.460175,403.253815 474.468689,403.202484 470.982422,403.216309 
z"/>
</svg>